<svg width="71.59" height="122.88" xmlns="http://www.w3.org/2000/svg" xml:space="preserve" version="1.1">

 <g>
  <title>Layer 1</title>
  <g id="svg_1">
   <path fill="#9ACEE6" id="svg_2" clip-rule="evenodd" fill-rule="evenodd" d="m12.74,0l46.11,0c3.51,0 6.69,1.43 9,3.74c2.31,2.31 3.74,5.49 3.74,9l0,97.4c0,3.51 -1.43,6.69 -3.74,9c-2.31,2.31 -5.49,3.74 -9,3.74l-46.11,0c-3.51,0 -6.69,-1.43 -9,-3.74c-2.31,-2.31 -3.74,-5.49 -3.74,-9l0,-97.4c0,-3.51 1.43,-6.69 3.74,-9c2.31,-2.31 5.5,-3.74 9,-3.74l0,0zm23.05,107.18c2.88,0 5.22,2.34 5.22,5.22c0,2.88 -2.34,5.22 -5.22,5.22c-2.88,0 -5.22,-2.34 -5.22,-5.22c0.01,-2.88 2.34,-5.22 5.22,-5.22l0,0zm-32.13,-4l64.28,0l0,-83.48l-64.28,0l0,83.48l0,0z" class="st0"/>
  </g>
 </g>
</svg>