<svg width="122.879" height="122.879" xmlns="http://www.w3.org/2000/svg" xml:space="preserve" enable-background="new 0 0 122.879 122.879" version="1.1">

 <g>
  <title>Layer 1</title>
  <g id="svg_1">
   <path fill="#B6C7EA" id="svg_2" d="m109.465,89.503c0.182,0 0.359,0.019 0.533,0.053c1.146,-1.998 2.191,-4.095 3.135,-6.286c0.018,-0.044 0.037,-0.086 0.059,-0.128c1.418,-3.345 2.488,-6.819 3.209,-10.419c0.559,-2.793 0.904,-5.657 1.035,-8.591l-16.893,0c-0.307,8.574 -2.867,17.03 -7.639,25.371l16.561,0l0,0zm-2.945,5.386l-17.014,0c-5.164,7.481 -12.121,14.87 -20.838,22.167c1.367,-0.17 2.719,-0.388 4.055,-0.655c3.646,-0.729 7.164,-1.817 10.549,-3.264l-0.002,-0.004c3.441,-1.48 6.646,-3.212 9.609,-5.199c2.969,-1.992 5.721,-4.255 8.25,-6.795l0.01,-0.01l0,0c1.957,-1.949 3.75,-4.03 5.381,-6.24l0,0zm-52.31,22.166c-8.716,-7.296 -15.673,-14.685 -20.838,-22.166l-17.011,0c1.631,2.21 3.423,4.291 5.379,6.24l0.01,0.011l0,-0.001c2.53,2.54 5.282,4.803 8.25,6.795c2.962,1.987 6.167,3.719 9.609,5.199c0.043,0.019 0.086,0.038 0.128,0.059c3.345,1.419 6.819,2.488 10.42,3.209c1.336,0.267 2.686,0.485 4.053,0.654l0,0zm-41.358,-27.552l17.122,0c-4.771,-8.341 -7.332,-16.797 -7.637,-25.371l-16.892,0c0.13,2.934 0.475,5.797 1.034,8.59c0.729,3.646 1.818,7.164 3.264,10.549l0.004,-0.001c0.935,2.172 1.969,4.251 3.105,6.233l0,0zm-7.407,-30.756l16.997,0c0.625,-8.4 3.412,-16.857 8.407,-25.371l-17.997,0c-1.136,1.982 -2.17,4.061 -3.105,6.234c-0.019,0.043 -0.039,0.086 -0.059,0.127c-1.419,3.346 -2.488,6.82 -3.209,10.42c-0.559,2.793 -0.904,5.657 -1.034,8.59l0,0zm10.916,-30.756l17.938,0c5.108,-7.361 11.862,-14.765 20.29,-22.212c-1.496,0.175 -2.973,0.408 -4.431,0.7c-3.647,0.729 -7.164,1.818 -10.549,3.264l0.001,0.003c-3.442,1.481 -6.647,3.212 -9.609,5.2c-2.968,1.992 -5.72,4.255 -8.25,6.794l-0.011,0.01l0,0c-1.956,1.95 -3.748,4.03 -5.379,6.241l0,0zm51.928,-22.213c8.428,7.447 15.182,14.851 20.291,22.212l17.939,0c-1.631,-2.21 -3.424,-4.291 -5.381,-6.24l-0.01,-0.01l0,0c-2.529,-2.54 -5.281,-4.802 -8.25,-6.794c-2.963,-1.988 -6.168,-3.719 -9.609,-5.2c-0.043,-0.018 -0.086,-0.038 -0.127,-0.059c-3.346,-1.418 -6.82,-2.488 -10.42,-3.208c-1.458,-0.292 -2.937,-0.525 -4.433,-0.701l0,0zm41.738,27.598l-17.998,0c4.996,8.514 7.783,16.971 8.408,25.371l16.998,0c-0.131,-2.934 -0.477,-5.797 -1.035,-8.59c-0.73,-3.646 -1.818,-7.164 -3.264,-10.549l-0.004,0.002c-0.935,-2.173 -1.968,-4.252 -3.105,-6.234l0,0zm-60.921,-32.178c3.992,-0.799 8.104,-1.198 12.334,-1.198c4.23,0 8.341,0.399 12.333,1.198c3.934,0.788 7.758,1.97 11.473,3.547c0.051,0.018 0.1,0.037 0.148,0.058c3.703,1.594 7.197,3.485 10.471,5.684c3.268,2.192 6.291,4.677 9.066,7.462c2.785,2.775 5.27,5.799 7.461,9.065c2.197,3.275 4.09,6.768 5.684,10.473l-0.004,0.001l0.004,0.009c1.607,3.758 2.809,7.628 3.605,11.609c0.799,3.992 1.197,8.104 1.197,12.334c0,4.23 -0.398,8.343 -1.197,12.335c-0.787,3.932 -1.971,7.758 -3.547,11.472c-0.018,0.05 -0.037,0.099 -0.059,0.147c-1.594,3.705 -3.486,7.197 -5.684,10.472c-2.191,3.267 -4.676,6.29 -7.461,9.065c-2.775,2.785 -5.799,5.271 -9.066,7.462c-3.273,2.198 -6.768,4.091 -10.471,5.684l-0.002,-0.004l-0.01,0.004c-3.758,1.606 -7.629,2.808 -11.609,3.604c-3.992,0.799 -8.104,1.198 -12.333,1.198c-4.229,0 -8.342,-0.399 -12.334,-1.198c-3.933,-0.787 -7.758,-1.97 -11.474,-3.546c-0.049,-0.019 -0.098,-0.037 -0.147,-0.059c-3.705,-1.593 -7.197,-3.485 -10.472,-5.684c-3.266,-2.191 -6.29,-4.677 -9.065,-7.462c-2.785,-2.775 -5.27,-5.799 -7.461,-9.065c-2.198,-3.274 -4.09,-6.767 -5.684,-10.472l0.004,-0.002l-0.004,-0.009c-1.606,-3.758 -2.808,-7.628 -3.604,-11.609c-0.798,-3.991 -1.198,-8.103 -1.198,-12.334c0,-4.229 0.4,-8.342 1.199,-12.334c0.787,-3.933 1.97,-7.758 3.546,-11.473c0.018,-0.049 0.037,-0.099 0.058,-0.147c1.594,-3.705 3.485,-7.198 5.684,-10.473c2.192,-3.266 4.677,-6.29 7.461,-9.065c2.775,-2.785 5.799,-5.27 9.065,-7.462c3.275,-2.198 6.768,-4.09 10.472,-5.684l0.001,0.004l0.009,-0.004c3.759,-1.604 7.63,-2.806 11.611,-3.603l0,0zm15.027,8.07l0,18.723l17.826,0c-4.684,-6.176 -10.619,-12.416 -17.826,-18.723l0,0zm0,24.108l0,25.371l30.922,0c-0.699,-8.332 -3.789,-16.788 -9.318,-25.371l-21.604,0l0,0zm0,30.756l0,25.371l22.51,0c5.328,-8.396 8.189,-16.854 8.531,-25.371l-31.041,0l0,0zm0,30.757l0,18.952c7.645,-6.283 13.902,-12.601 18.746,-18.952l-18.746,0l0,0zm-5.386,18.954l0,-18.954l-18.747,0c4.843,6.351 11.1,12.67 18.747,18.954l0,0zm0,-24.34l0,-25.371l-31.041,0c0.341,8.518 3.201,16.975 8.531,25.371l22.51,0l0,0zm0,-30.756l0,-25.371l-21.604,0c-5.529,8.583 -8.619,17.04 -9.319,25.371l30.923,0l0,0zm0,-30.756l0,-18.725c-7.207,6.307 -13.143,12.549 -17.827,18.725l17.827,0l0,0z"/>
  </g>
 </g>
</svg>